<mxfile host="app.diagrams.net" modified="2024-03-20T08:06:02.287Z" agent="Mozilla/5.0 (Macintosh; Intel Mac OS X 10_15_7) AppleWebKit/537.36 (KHTML, like Gecko) Chrome/122.0.0.0 Safari/537.36" version="24.0.7" etag="kTtJG4zgI9OAUsGC4Wjj" type="github">
  <diagram name="第 1 页" id="f3QoDb4bqtP1e_xNzKx2">
    <mxGraphModel>
      <root>
        <mxCell id="0" />
        <mxCell id="1" parent="0" />
      </root>
    </mxGraphModel>
  </diagram>
</mxfile>
